<?xml version="1.0" encoding="iso-8859-1"?>
<!-- Generator: Adobe Illustrator 19.0.0, SVG Export Plug-In . SVG Version: 6.00 Build 0)  -->
<svg version="1.1" id="Capa_1" xmlns="http://www.w3.org/2000/svg" xmlns:xlink="http://www.w3.org/1999/xlink" x="0px" y="0px"
	 viewBox="0 0 512.028 512.028" style="enable-background:new 0 0 512.028 512.028;" xml:space="preserve">
<g>
	<g>
		<path d="M469.359,273.092c9.421-0.011,17.056-7.645,17.067-17.067v-26.709c16.642-4.291,27.494-20.29,25.328-37.339
			c-2.166-17.049-16.675-29.825-33.861-29.818c-2.292,0.003-4.579,0.232-6.827,0.683c-15.569,3.174-26.887,16.674-27.295,32.559
			c-0.408,15.884,10.202,29.948,25.588,33.916v26.709h-85.333c0.086-33.968-13.4-66.562-37.461-90.539
			c-1.707-1.707-3.413-3.328-5.205-4.864v-32.597h119.467c9.414-0.028,17.039-7.653,17.067-17.067V92.783
			c16.643-4.297,27.494-20.299,25.328-37.35C501.054,38.381,486.547,25.6,469.359,25.6s-31.695,12.781-33.861,29.832
			c-2.166,17.051,8.685,33.053,25.328,37.35v18.176H341.359c-9.414,0.027-17.039,7.652-17.067,17.067v19.712
			c-17.962-11.384-38.509-18.047-59.733-19.371V93.892h34.133c9.421-0.011,17.056-7.646,17.067-17.067v-9.643
			c16.643-4.297,27.494-20.299,25.328-37.35C338.921,12.781,324.414,0,307.225,0s-31.695,12.781-33.861,29.832
			c-2.166,17.051,8.685,33.053,25.328,37.35v9.643h-34.133c-9.421,0.011-17.056,7.646-17.067,17.067v34.475
			c-11.647,0.685-23.138,3.012-34.133,6.912V51.225c-0.011-9.421-7.646-17.056-17.067-17.067h-86.443
			c-3.801-14.713-16.873-25.14-32.063-25.573s-28.836,9.23-33.469,23.703c-4.634,14.472,0.862,30.265,13.479,38.734
			c5.613,3.808,12.246,5.83,19.029,5.803c15.564,0.014,29.158-10.524,33.024-25.6h86.443v91.563
			c-28.488,15.015-50.273,40.212-61.013,70.571H42.692v-43.776c16.643-4.297,27.494-20.299,25.328-37.35
			C65.854,115.181,51.347,102.4,34.159,102.4c-17.188,0-31.695,12.781-33.861,29.832c-2.166,17.051,8.685,33.053,25.328,37.35
			v43.776c0.011,9.421,7.646,17.056,17.067,17.067h87.893c-1.713,8.425-2.571,17.002-2.56,25.6H93.892
			c-9.421,0.011-17.056,7.646-17.067,17.067v119.467h-9.643c-4.297-16.643-20.299-27.494-37.35-25.328
			C12.781,369.397,0,383.904,0,401.092s12.781,31.695,29.832,33.861c17.051,2.166,33.053-8.685,37.35-25.328h9.643
			c9.421-0.011,17.056-7.646,17.067-17.067V273.092h35.243c5.502,41.037,30.526,76.872,67.157,96.171v100.096h-52.309
			c-4.297-16.643-20.299-27.494-37.35-25.328C89.581,446.197,76.8,460.704,76.8,477.892s12.781,31.695,29.832,33.861
			c17.051,2.166,33.053-8.685,37.35-25.328h52.309c9.421-0.011,17.056-7.645,17.067-17.067v-92.587
			c10.995,3.901,22.487,6.228,34.133,6.912v34.475c0.011,9.421,7.646,17.056,17.067,17.067h59.733v9.643
			c-14.67,3.804-25.07,16.831-25.53,31.979c-0.46,15.148,9.131,28.782,23.543,33.469c14.412,4.687,30.188-0.699,38.726-13.22
			s7.789-29.174-1.838-40.879c-4.571-5.601-10.825-9.58-17.835-11.349v-9.643c-0.011-9.421-7.646-17.056-17.067-17.067h-59.733
			v-34.475c30.949-1.95,60.117-15.153,82.005-37.12c6.829-6.871,12.869-14.485,18.005-22.699l0.029-0.05
			c0.759,0.273,1.554,0.434,2.36,0.477h85.333v86.443c-15.076,3.866-25.614,17.46-25.6,33.024
			c-0.027,4.552,0.903,9.058,2.731,13.227c6.208,14.755,21.844,23.207,37.589,20.317c15.745-2.89,27.361-16.342,27.925-32.341
			c0.564-15.998-10.076-30.236-25.579-34.227v-86.443c-0.011-9.421-7.646-17.056-17.067-17.067h-78.933
			c4.778-10.871,7.995-22.362,9.557-34.133H469.359z M460.826,196.292c0-9.426,7.641-17.067,17.067-17.067
			s17.067,7.641,17.067,17.067s-7.641,17.067-17.067,17.067C468.478,213.331,460.853,205.706,460.826,196.292z M452.292,59.759
			c0-9.426,7.641-17.067,17.067-17.067s17.067,7.641,17.067,17.067s-7.641,17.067-17.067,17.067
			C459.945,76.798,452.32,69.173,452.292,59.759z M290.159,34.159c0-9.426,7.641-17.067,17.067-17.067s17.067,7.641,17.067,17.067
			s-7.641,17.067-17.067,17.067C297.811,51.198,290.186,43.573,290.159,34.159z M76.825,59.759c-9.426,0-17.067-7.641-17.067-17.067
			S67.4,25.625,76.825,25.625s17.067,7.641,17.067,17.067C93.864,52.106,86.24,59.731,76.825,59.759z M34.159,153.625
			c-9.414-0.028-17.039-7.652-17.067-17.067c0-9.426,7.641-17.067,17.067-17.067s17.067,7.641,17.067,17.067
			S43.585,153.625,34.159,153.625z M51.225,401.092c-0.028,9.414-7.653,17.039-17.067,17.067
			c-9.392-0.001-17.018-7.591-17.065-16.983c-0.046-9.392,7.505-17.056,16.896-17.15c9.392-0.094,17.094,7.419,17.235,16.81V401.092
			z M110.959,494.959c-9.426,0-17.067-7.641-17.067-17.067s7.641-17.067,17.067-17.067s17.067,7.641,17.067,17.067
			C127.998,487.306,120.373,494.931,110.959,494.959z M332.825,460.826c9.414,0.028,17.039,7.652,17.067,17.067
			c0,9.426-7.641,17.067-17.067,17.067c-9.426,0-17.067-7.641-17.067-17.067S323.4,460.826,332.825,460.826z M285.039,153.796
			c0.366-0.434,0.798-0.808,1.28-1.109c0.427-0.256,0.939-0.513,1.451-0.768c0.528-0.209,1.069-0.38,1.621-0.512
			c1.103-0.171,2.225-0.171,3.328,0c1.093,0.237,2.134,0.671,3.072,1.28c0.465,0.323,0.894,0.695,1.28,1.109
			c3.299,3.332,3.299,8.7,0,12.032c-0.386,0.414-0.815,0.786-1.28,1.109c-0.512,0.256-0.939,0.512-1.451,0.768
			c-0.529,0.182-1.071,0.325-1.621,0.427c-0.557,0.141-1.132,0.198-1.707,0.171c-0.546,0.028-1.093-0.03-1.621-0.171
			c-0.55-0.102-1.092-0.245-1.621-0.427c-0.512-0.256-1.024-0.512-1.451-0.768c-0.482-0.301-0.914-0.675-1.28-1.109
			c-1.636-1.574-2.56-3.746-2.56-6.016S283.403,155.37,285.039,153.796z M247.663,151.919c0.093-0.535,0.265-1.052,0.512-1.536
			c0.186-0.544,0.445-1.061,0.768-1.536c0.315-0.447,0.657-0.874,1.024-1.28c1.614-1.592,3.792-2.481,6.059-2.475
			c0.544,0.01,1.087,0.067,1.621,0.171c0.565,0.08,1.113,0.253,1.621,0.512c0.524,0.17,1.015,0.43,1.451,0.768
			c0.512,0.341,0.939,0.683,1.365,1.024c1.572,1.627,2.458,3.796,2.475,6.059c-0.013,1.115-0.244,2.217-0.683,3.243
			c-0.433,1.034-1.039,1.986-1.792,2.816c-0.427,0.341-0.853,0.683-1.365,1.024c-0.435,0.338-0.926,0.598-1.451,0.768
			c-0.508,0.259-1.056,0.432-1.621,0.512c-0.535,0.099-1.077,0.156-1.621,0.171c-2.259-0.033-4.423-0.916-6.059-2.475
			c-0.753-0.83-1.359-1.782-1.792-2.816c-0.438-1.026-0.67-2.127-0.683-3.243C247.507,153.053,247.564,152.483,247.663,151.919z
			 M214.98,153.796L214.98,153.796c2.004-2.022,4.882-2.918,7.68-2.389c0.512,0.171,1.109,0.341,1.621,0.512
			c0.512,0.256,1.024,0.512,1.451,0.768c0.482,0.301,0.914,0.675,1.28,1.109c1.626,1.563,2.55,3.718,2.56,5.973
			c-0.015,0.572-0.072,1.143-0.171,1.707c-0.171,0.512-0.341,1.109-0.512,1.621c-0.256,0.512-0.512,0.939-0.768,1.451
			c-0.345,0.448-0.715,0.875-1.109,1.28c-3.323,3.323-8.709,3.323-12.032,0C211.658,162.505,211.658,157.118,214.98,153.796z
			 M147.311,234.948c0.413-1.039,1.055-1.973,1.877-2.731c3.389-3.157,8.643-3.157,12.032,0c0.77,0.785,1.378,1.712,1.792,2.731
			c0.479,1.043,0.712,2.181,0.683,3.328c-0.033,4.699-3.834,8.5-8.533,8.533c-4.665-0.114-8.42-3.868-8.533-8.533
			C146.641,237.133,146.872,236.004,147.311,234.948z M156.868,282.137c-0.557,0.141-1.132,0.198-1.707,0.171
			c-2.245,0.022-4.402-0.872-5.973-2.475c-0.823-0.758-1.464-1.691-1.877-2.731c-0.439-1.055-0.67-2.185-0.683-3.328
			c0.01-2.256,0.933-4.411,2.56-5.973c3.372-3.2,8.66-3.2,12.032,0c1.57,1.594,2.457,3.736,2.475,5.973
			c0.029,1.147-0.204,2.285-0.683,3.328c-0.414,1.018-1.022,1.946-1.792,2.731c-0.405,0.394-0.833,0.764-1.28,1.109l-1.536,0.768
			C157.904,281.892,157.39,282.035,156.868,282.137z M173.337,313.284c-1.594,1.57-3.736,2.458-5.973,2.475
			c-2.262-0.016-4.432-0.902-6.059-2.475c-3.3-3.365-3.3-8.752,0-12.117c3.389-3.157,8.643-3.157,12.032,0
			c1.637,1.591,2.56,3.776,2.56,6.059S174.974,311.693,173.337,313.284z M175.215,208.068c-1.304,3.191-4.404,5.28-7.851,5.291
			c-2.262-0.016-4.432-0.903-6.059-2.475c-0.779-0.827-1.414-1.779-1.877-2.816c-0.411-1.031-0.614-2.133-0.597-3.243
			c-0.007-2.267,0.883-4.445,2.475-6.059c3.389-3.157,8.643-3.157,12.032,0c1.615,1.605,2.535,3.781,2.56,6.059
			C175.885,205.941,175.653,207.043,175.215,208.068z M196.207,340.505c-0.781,0.796-1.708,1.433-2.731,1.877
			c-1.031,0.411-2.133,0.614-3.243,0.597c-1.138,0.024-2.27-0.179-3.328-0.597c-1.023-0.444-1.95-1.082-2.731-1.877
			c-1.629-1.596-2.551-3.778-2.56-6.059c0.015-0.544,0.072-1.086,0.171-1.621c0.171-0.597,0.341-1.109,0.512-1.621
			c0.256-0.512,0.512-1.024,0.768-1.451c0.301-0.482,0.675-0.914,1.109-1.28c0.758-0.822,1.691-1.464,2.731-1.877
			c2.107-0.853,4.464-0.853,6.571,0c1.039,0.413,1.972,1.055,2.731,1.877c0.434,0.366,0.809,0.798,1.109,1.28
			c0.256,0.427,0.512,0.939,0.768,1.451c0.171,0.512,0.341,1.024,0.512,1.621c0.099,0.535,0.156,1.077,0.171,1.621
			C198.758,336.727,197.836,338.91,196.207,340.505z M198.596,179.225c-0.171,0.597-0.341,1.109-0.512,1.621
			c-0.256,0.512-0.512,1.024-0.768,1.451c-0.322,0.492-0.694,0.949-1.109,1.365c-1.609,1.547-3.742,2.431-5.973,2.475
			c-1.144-0.004-2.275-0.236-3.328-0.683c-1.018-0.413-1.946-1.022-2.731-1.792c-0.415-0.416-0.787-0.874-1.109-1.365
			c-0.256-0.427-0.512-0.939-0.768-1.451c-0.171-0.512-0.341-1.024-0.512-1.621c-0.099-0.535-0.156-1.077-0.171-1.621
			c0.015-0.572,0.072-1.143,0.171-1.707c0.171-0.512,0.341-1.109,0.512-1.621c0.256-0.512,0.512-0.939,0.768-1.451
			c0.345-0.447,0.715-0.875,1.109-1.28c0.803-0.768,1.725-1.402,2.731-1.877c2.107-0.854,4.464-0.854,6.571,0
			c1.005,0.475,1.927,1.109,2.731,1.877c0.394,0.405,0.764,0.833,1.109,1.28c0.256,0.512,0.512,0.939,0.768,1.451
			c0.171,0.512,0.341,1.109,0.512,1.621c0.099,0.564,0.156,1.134,0.171,1.707C198.752,178.148,198.695,178.69,198.596,179.225z
			 M228.889,355.524c-0.444,1.023-1.082,1.95-1.877,2.731c-1.574,1.636-3.746,2.56-6.016,2.56c-2.27,0-4.442-0.924-6.016-2.56
			c-0.796-0.781-1.433-1.708-1.877-2.731c-0.411-1.031-0.614-2.133-0.597-3.243c-0.017-1.137,0.186-2.267,0.597-3.328
			c0.444-1.023,1.082-1.95,1.877-2.731c3.389-3.157,8.643-3.157,12.032,0c0.796,0.781,1.433,1.708,1.877,2.731
			c0.43,1.058,0.662,2.186,0.683,3.328C229.559,353.397,229.328,354.499,228.889,355.524z M262.084,364.484
			c-0.427,0.341-0.853,0.683-1.365,1.024c-0.435,0.338-0.926,0.598-1.451,0.768c-0.508,0.259-1.056,0.432-1.621,0.512
			c-0.535,0.099-1.077,0.156-1.621,0.171c-2.259-0.033-4.423-0.916-6.059-2.475c-0.367-0.406-0.709-0.833-1.024-1.28
			c-0.323-0.476-0.582-0.992-0.768-1.536c-0.247-0.483-0.419-1.001-0.512-1.536c-0.099-0.564-0.156-1.134-0.171-1.707
			c0.013-1.115,0.245-2.217,0.683-3.243c0.433-1.034,1.039-1.986,1.792-2.816c2.016-2,4.896-2.864,7.68-2.304
			c0.565,0.08,1.113,0.253,1.621,0.512c0.524,0.17,1.015,0.43,1.451,0.768c0.512,0.341,0.939,0.683,1.365,1.024
			c0.753,0.83,1.359,1.782,1.792,2.816c0.438,1.026,0.67,2.127,0.683,3.243C264.542,360.688,263.656,362.857,262.084,364.484z
			 M297.071,358.255c-0.386,0.414-0.815,0.786-1.28,1.109c-0.512,0.256-0.939,0.512-1.451,0.768
			c-0.528,0.209-1.069,0.38-1.621,0.512c-0.564,0.099-1.134,0.156-1.707,0.171c-0.544-0.015-1.086-0.072-1.621-0.171
			c-0.552-0.132-1.094-0.303-1.621-0.512c-0.512-0.256-1.024-0.512-1.451-0.768c-0.482-0.301-0.914-0.675-1.28-1.109
			c-1.627-1.563-2.55-3.718-2.56-5.973c0.021-1.142,0.252-2.27,0.683-3.328c0.413-1.04,1.055-1.973,1.877-2.731
			c0.366-0.434,0.798-0.809,1.28-1.109c0.427-0.256,0.939-0.512,1.451-0.768c0.529-0.182,1.071-0.325,1.621-0.427
			c1.095-0.256,2.233-0.256,3.328,0c0.55,0.102,1.092,0.245,1.621,0.427c0.512,0.256,0.939,0.512,1.451,0.768
			c0.465,0.323,0.894,0.695,1.28,1.109c0.796,0.781,1.433,1.708,1.877,2.731c0.404,1.063,0.607,2.191,0.597,3.328
			C299.567,354.526,298.674,356.683,297.071,358.255z M307.225,273.86c-0.138,18.536-15.255,33.463-33.792,33.365h-0.341v8.533
			c0,4.713-3.821,8.533-8.533,8.533s-8.533-3.82-8.533-8.533v-8.533h-17.067v8.533c0,4.713-3.82,8.533-8.533,8.533
			s-8.533-3.82-8.533-8.533v-8.533h-8.533c-4.713,0-8.533-3.82-8.533-8.533s3.821-8.533,8.533-8.533h60.075
			c9.11,0.094,16.584-7.19,16.725-16.299v-1.536c-0.141-9.109-7.616-16.393-16.725-16.299h-34.475v8.533
			c0,4.713-3.82,8.533-8.533,8.533s-8.533-3.82-8.533-8.533v-25.6c0-4.713,3.82-8.533,8.533-8.533s8.533,3.82,8.533,8.533h31.061
			c6.361,0.043,11.554-5.074,11.605-11.435v-2.731c-0.051-6.361-5.245-11.478-11.605-11.435h-56.661
			c-4.713,0-8.533-3.821-8.533-8.533s3.821-8.533,8.533-8.533h8.533v-8.533c0-4.713,3.82-8.533,8.533-8.533s8.533,3.82,8.533,8.533
			v8.533h17.067v-8.533c0-4.713,3.82-8.533,8.533-8.533s8.533,3.82,8.533,8.533v8.875c14.475,1.467,25.515,13.611,25.6,28.16v2.731
			c-0.009,6.292-2.144,12.396-6.059,17.323c9.092,6.197,14.549,16.474,14.592,27.477V273.86z M329.754,337.775
			c-0.444,1.023-1.081,1.95-1.877,2.731c-0.383,0.392-0.813,0.736-1.28,1.024c-0.464,0.316-0.949,0.601-1.451,0.853
			c-0.529,0.182-1.071,0.325-1.621,0.427c-0.557,0.141-1.132,0.199-1.707,0.171c-2.245,0.022-4.402-0.872-5.973-2.475
			c-0.823-0.758-1.464-1.691-1.877-2.731c-0.43-1.058-0.662-2.186-0.683-3.328c0.016-2.557,1.172-4.973,3.153-6.59
			s4.579-2.267,7.087-1.772c1.093,0.237,2.134,0.671,3.072,1.28l1.28,1.024c1.592,1.614,2.481,3.792,2.475,6.059
			C330.36,335.584,330.158,336.712,329.754,337.775z M330.266,178.799c-0.09,0.7-0.262,1.388-0.512,2.048
			c-0.444,1.023-1.082,1.95-1.877,2.731c-0.405,0.394-0.833,0.764-1.28,1.109c-0.938,0.609-1.979,1.042-3.072,1.28
			c-0.564,0.099-1.134,0.156-1.707,0.171c-2.255-0.01-4.411-0.933-5.973-2.56c-0.822-0.758-1.464-1.691-1.877-2.731
			c-1.378-3.188-0.629-6.897,1.877-9.301c2.01-2.011,4.895-2.876,7.68-2.304c0.263,0.016,0.523,0.073,0.768,0.171
			c0.256,0.085,0.597,0.171,0.853,0.256c0.502,0.252,0.986,0.537,1.451,0.853c0.467,0.288,0.897,0.632,1.28,1.024
			c1.606,1.605,2.498,3.789,2.475,6.059C330.368,178.004,330.339,178.405,330.266,178.799z M336.324,203.119
			c0.132-0.524,0.303-1.037,0.512-1.536c0.187-0.544,0.445-1.06,0.768-1.536c0.345-0.448,0.715-0.875,1.109-1.28
			c0.392-0.382,0.821-0.725,1.28-1.024c0.435-0.338,0.926-0.598,1.451-0.768c0.508-0.259,1.056-0.432,1.621-0.512
			c2.782-0.518,5.643,0.34,7.68,2.304c0.367,0.405,0.709,0.833,1.024,1.28c0.323,0.475,0.582,0.992,0.768,1.536
			c0.247,0.483,0.419,1.001,0.512,1.536c0.228,1.126,0.228,2.287,0,3.413c-0.093,0.535-0.265,1.052-0.512,1.536
			c-0.186,0.544-0.445,1.06-0.768,1.536c-0.315,0.447-0.657,0.875-1.024,1.28l-1.28,1.024c-0.476,0.323-0.992,0.582-1.536,0.768
			c-0.483,0.247-1.001,0.419-1.536,0.512c-0.564,0.099-1.134,0.156-1.707,0.171c-0.544-0.015-1.086-0.072-1.621-0.171
			c-0.565-0.08-1.113-0.253-1.621-0.512c-0.525-0.17-1.015-0.43-1.451-0.768c-0.459-0.299-0.888-0.642-1.28-1.024
			c-1.615-1.605-2.535-3.781-2.56-6.059C336.172,204.253,336.229,203.683,336.324,203.119z M352.538,310.468
			c-0.433,1.034-1.039,1.986-1.792,2.816c-1.627,1.572-3.796,2.458-6.059,2.475c-0.544-0.015-1.086-0.072-1.621-0.171
			c-0.565-0.08-1.113-0.253-1.621-0.512c-0.525-0.17-1.015-0.43-1.451-0.768c-0.478-0.271-0.91-0.617-1.28-1.024
			c-1.611-1.605-2.516-3.785-2.516-6.059s0.905-4.454,2.516-6.059c0.37-0.407,0.802-0.752,1.28-1.024
			c0.435-0.338,0.926-0.598,1.451-0.768c0.508-0.259,1.056-0.432,1.621-0.512c2.784-0.56,5.664,0.304,7.68,2.304
			c0.753,0.83,1.359,1.782,1.792,2.816C353.448,306.049,353.448,308.402,352.538,310.468z M365.252,275.481
			c-0.238,1.093-0.671,2.134-1.28,3.072c-0.323,0.465-0.695,0.894-1.109,1.28c-1.572,1.603-3.728,2.497-5.973,2.475
			c-0.574,0.028-1.149-0.029-1.707-0.17c-0.55-0.102-1.092-0.245-1.621-0.427c-0.512-0.256-0.939-0.512-1.451-0.768
			c-0.447-0.345-0.875-0.715-1.28-1.109c-0.412-0.365-0.758-0.798-1.024-1.28c-0.334-0.453-0.62-0.939-0.853-1.451
			c-0.182-0.529-0.325-1.071-0.427-1.621c-0.141-0.557-0.199-1.132-0.171-1.707c-0.022-2.245,0.871-4.402,2.475-5.973
			c0.405-0.394,0.832-0.764,1.28-1.109c0.512-0.256,0.939-0.512,1.451-0.768c0.512-0.171,1.109-0.341,1.621-0.512
			c2.796-0.5,5.661,0.391,7.68,2.389c0.434,0.366,0.808,0.798,1.109,1.28c0.338,0.435,0.598,0.926,0.768,1.451
			c0.248,0.513,0.42,1.059,0.512,1.621c0.099,0.535,0.156,1.077,0.171,1.621C365.408,274.347,365.351,274.917,365.252,275.481z
			 M365.252,239.897c-0.08,0.565-0.253,1.113-0.512,1.621c-0.17,0.524-0.43,1.015-0.768,1.451c-0.301,0.482-0.675,0.914-1.109,1.28
			c-1.563,1.627-3.718,2.55-5.973,2.56c-0.572-0.015-1.143-0.072-1.707-0.171c-0.512-0.171-1.109-0.341-1.621-0.512
			c-0.512-0.256-0.939-0.512-1.451-0.768c-0.447-0.345-0.875-0.716-1.28-1.109c-0.431-0.347-0.78-0.784-1.024-1.28
			c-0.334-0.453-0.62-0.939-0.853-1.451c-0.193-0.526-0.336-1.069-0.427-1.621c-0.141-0.528-0.199-1.075-0.171-1.621
			c-0.023-2.27,0.869-4.454,2.475-6.059c0.405-0.394,0.833-0.764,1.28-1.109c0.512-0.256,0.939-0.512,1.451-0.768
			c0.529-0.182,1.071-0.325,1.621-0.427c2.784-0.56,5.664,0.304,7.68,2.304c0.414,0.386,0.786,0.815,1.109,1.28
			c0.609,0.938,1.043,1.979,1.28,3.072c0.099,0.564,0.156,1.134,0.171,1.707C365.408,238.82,365.351,239.362,365.252,239.897z
			 M460.826,426.692c9.414,0.028,17.039,7.653,17.067,17.067c0,9.426-7.641,17.067-17.067,17.067
			c-9.426,0-17.067-7.641-17.067-17.067S451.4,426.692,460.826,426.692z"/>
	</g>
</g>
<g>
</g>
<g>
</g>
<g>
</g>
<g>
</g>
<g>
</g>
<g>
</g>
<g>
</g>
<g>
</g>
<g>
</g>
<g>
</g>
<g>
</g>
<g>
</g>
<g>
</g>
<g>
</g>
<g>
</g>
</svg>
