<?xml version="1.0" encoding="iso-8859-1"?>
<!-- Generator: Adobe Illustrator 19.0.0, SVG Export Plug-In . SVG Version: 6.00 Build 0)  -->
<svg version="1.1" id="Capa_1" xmlns="http://www.w3.org/2000/svg" xmlns:xlink="http://www.w3.org/1999/xlink" x="0px" y="0px"
	 viewBox="0 0 512 512" style="enable-background:new 0 0 512 512;" xml:space="preserve">
<g>
	<g>
		<g>
			<path d="M308.019,256h-70.312v91.429h70.312c25.516,1.169,47.195-18.471,48.545-43.978v-3.473
				C355.214,274.471,333.535,254.831,308.019,256z"/>
			<circle cx="228.564" cy="429.714" r="18.286"/>
			<circle cx="137.135" cy="164.571" r="18.286"/>
			<circle cx="164.564" cy="246.857" r="18.286"/>
			<path d="M54.85,320c16.63,0.049,31.129,11.323,35.273,27.429h129.298V256h-19.584c-4.604,17.831-21.749,29.458-40.018,27.137
				c-18.269-2.32-31.963-17.864-31.963-36.28c0-18.416,13.694-33.959,31.963-36.28c18.269-2.32,35.414,9.306,40.018,27.137h19.584
				v-36.571c0-5.049,4.093-9.143,9.143-9.143c5.049,0,9.143,4.093,9.143,9.143v36.571h77.437
				c16.97,0.771,31.384-12.295,32.277-29.259v-5.482c-0.893-16.964-15.306-30.03-32.277-29.259H172.409
				c-4.604,17.831-21.749,29.458-40.018,27.137s-31.963-17.864-31.963-36.28c0-18.416,13.694-33.959,31.963-36.28
				s35.414,9.306,40.018,27.137h47.013V53.559c-9.8-2.564-18.094-9.087-22.896-18.007C136.391,51.531,85.423,91.439,55.487,145.985
				C25.55,200.532,19.257,264.958,38.073,324.266C43.236,321.505,48.994,320.04,54.85,320z M143.528,89.214L143.528,89.214
				c10.762-7.274,22.206-13.485,34.17-18.544c4.65-1.968,10.015,0.207,11.982,4.857c1.968,4.65-0.207,10.015-4.857,11.982
				c-10.875,4.602-21.277,10.247-31.062,16.857c-2.707,1.828-6.183,2.073-9.119,0.643s-4.886-4.318-5.116-7.576
				S140.822,91.042,143.528,89.214z M58.939,215.469L58.939,215.469c2.65-12.946,6.577-25.597,11.723-37.768
				c1.968-4.65,7.332-6.825,11.982-4.857c4.65,1.968,6.825,7.332,4.857,11.982c-4.674,11.056-8.242,22.548-10.651,34.308
				c-4.952,24.327-4.952,49.402,0,73.728c0.656,3.199-0.446,6.506-2.889,8.673c-2.443,2.167-5.857,2.867-8.955,1.835
				s-5.411-3.639-6.067-6.838C53.487,269.786,53.487,242.215,58.939,215.469z"/>
			<circle cx="228.564" cy="18.286" r="18.286"/>
			<path d="M482.556,225.692C467.794,115.096,375.29,31.351,263.775,27.626c-3.384,12.709-13.343,22.615-26.069,25.933v101.87
				h45.714v-28.727c-17.831-4.604-29.458-21.749-27.137-40.018c2.32-18.269,17.864-31.963,36.28-31.963
				c18.416,0,33.959,13.694,36.28,31.963c2.32,18.269-9.306,35.414-27.137,40.018v28.727h13.438
				c27.07-0.777,49.674,20.478,50.563,47.545v5.482c-0.169,15.885-8.387,30.598-21.825,39.071
				c18.884,10.764,30.664,30.716,30.968,52.451v3.473c-1.346,35.609-31.215,63.437-66.83,62.263h-6.313v92.727
				c8.962,2.32,16.71,7.954,21.678,15.766C430.018,441.364,497.319,336.288,482.556,225.692z M441.323,334.299
				c-20.43,48.22-58.814,86.603-107.035,107.031c-4.65,1.968-10.015-0.207-11.982-4.857c-1.968-4.65,0.207-10.015,4.857-11.982
				c61.797-26.149,104.321-84.03,110.801-150.819c6.481-66.788-24.122-131.765-79.739-169.307c-4.184-2.826-5.285-8.508-2.46-12.692
				c2.826-4.184,8.508-5.285,12.692-2.46c32.335,21.828,57.646,52.565,72.866,88.487c5.146,12.173,9.073,24.825,11.723,37.772
				C461.24,255.356,457.153,296.786,441.323,334.299z"/>
			<path d="M283.421,365.714h-45.714v28.727c17.831,4.604,29.458,21.749,27.137,40.018c-2.321,18.269-17.864,31.963-36.28,31.963
				c-18.416,0-33.959-13.694-36.28-31.963c-2.321-18.269,9.306-35.414,27.137-40.018v-28.727H90.123
				c-2.712,10.415-9.877,19.105-19.584,23.753c42.795,59.834,111.891,95.268,185.454,95.104c0.432,0,0.872-0.023,1.307-0.026
				c3.341-12.788,13.332-22.772,26.122-26.104V365.714z M172.51,429.192c-1.158,2.131-3.116,3.715-5.442,4.402
				c-2.326,0.687-4.83,0.422-6.96-0.737c-5.679-3.085-11.259-6.473-16.58-10.071c-5.357-3.616-10.571-7.513-15.491-11.58
				c-4.893-4.036-9.696-8.402-14.277-12.973c-3.538-3.576-3.523-9.338,0.032-12.896c3.556-3.558,9.318-3.576,12.896-0.041
				c4.161,4.161,8.536,8.134,12.991,11.808c4.473,3.696,9.214,7.241,14.08,10.531c4.839,3.268,9.911,6.353,15.08,9.161
				c2.131,1.157,3.714,3.113,4.403,5.438S173.668,427.061,172.51,429.192z"/>
			<circle cx="292.564" cy="493.714" r="18.286"/>
			<circle cx="292.564" cy="91.429" r="18.286"/>
			<circle cx="54.85" cy="356.571" r="18.286"/>
		</g>
	</g>
</g>
<g>
</g>
<g>
</g>
<g>
</g>
<g>
</g>
<g>
</g>
<g>
</g>
<g>
</g>
<g>
</g>
<g>
</g>
<g>
</g>
<g>
</g>
<g>
</g>
<g>
</g>
<g>
</g>
<g>
</g>
</svg>
