<?xml version="1.0" encoding="iso-8859-1"?>
<!-- Generator: Adobe Illustrator 18.0.0, SVG Export Plug-In . SVG Version: 6.00 Build 0)  -->
<!DOCTYPE svg PUBLIC "-//W3C//DTD SVG 1.1//EN" "http://www.w3.org/Graphics/SVG/1.1/DTD/svg11.dtd">
<svg version="1.1" id="Capa_1" xmlns="http://www.w3.org/2000/svg" xmlns:xlink="http://www.w3.org/1999/xlink" x="0px" y="0px"
	 viewBox="0 0 58 58" style="enable-background:new 0 0 58 58;" xml:space="preserve">
<g>
	<path d="M35.947,29H29l0.001,3H33c0.55,0,1,0.45,1,1s-0.45,1-1,1h-3.999l0.001,4h7.119c1.533,0,2.69-0.218,3.539-1.066
		s1.261-2.007,1.261-3.539s-0.413-2.689-1.261-3.539C38.812,29.007,37.48,29,35.947,29z"/>
	<path d="M34.962,27c1.261,0,2.271-0.81,3.085-1.654c0.82-0.851,1.218-1.869,1.218-3.115c0-1.242-0.391-2.237-1.195-3.042
		c-0.805-0.804-1.875-1.194-3.274-1.194H29c-0.042,0,0,0.006,0,0.006l-0.053,9H34.962z"/>
	<path d="M32,0c-1.021,0-2.026,0.076-3.015,0.21C27.963,0.074,26.959,0,26,0C18.638,0,11.999,3.57,7.34,9.264
		C7.293,9.306,7.258,9.356,7.22,9.407c-1.485,1.84-2.761,3.899-3.793,6.127c-0.026,0.048-0.048,0.094-0.066,0.146
		c-0.711,1.557-1.305,3.194-1.76,4.899c-0.045,0.096-0.065,0.201-0.078,0.311C0.861,23.465,0.5,26.185,0.5,29
		c0,4.405,0.872,8.581,2.424,12.324c0.014,0.039,0.027,0.076,0.045,0.112c0.931,2.22,2.102,4.284,3.476,6.15
		c0.034,0.046,0.062,0.096,0.104,0.136c1.39,1.865,2.984,3.526,4.741,4.943c0.049,0.055,0.109,0.094,0.169,0.137
		C15.586,56.074,20.598,58,26,58c0.959,0,1.963-0.074,2.985-0.21C29.974,57.924,30.979,58,32,58c14.061,0,25.5-13.009,25.5-29
		S46.061,0,32,0z M49.217,20.202c0.522-0.18,1.091,0.099,1.271,0.621c0.223,0.65,0.42,1.317,0.587,1.982
		c0.135,0.536-0.19,1.079-0.727,1.213c-0.082,0.021-0.163,0.03-0.244,0.03c-0.447,0-0.855-0.303-0.969-0.757
		c-0.153-0.61-0.335-1.222-0.54-1.819C48.416,20.95,48.694,20.381,49.217,20.202z M38.704,8.849
		c0.248-0.493,0.848-0.691,1.343-0.443c0.617,0.311,1.227,0.663,1.812,1.044c0.463,0.302,0.594,0.921,0.292,1.384
		c-0.192,0.294-0.513,0.454-0.839,0.454c-0.188,0-0.377-0.052-0.545-0.163c-0.523-0.341-1.068-0.655-1.62-0.933
		C38.653,9.943,38.455,9.342,38.704,8.849z M31.971,6.477c0.004,0,0.008,0,0.012,0c0.71,0,1.396,0.04,2.068,0.119
		c0.548,0.064,0.941,0.561,0.877,1.109c-0.06,0.509-0.491,0.884-0.992,0.884c-0.038,0-0.077-0.002-0.117-0.007
		c-0.6-0.07-1.212-0.105-1.818-0.105c-0.553,0-1.021-0.447-1.021-1c0-0.553,0.427-1,0.979-1v1L31.971,6.477z M26.491,9.475
		c-0.576,0.215-1.151,0.469-1.709,0.753c-0.146,0.074-0.301,0.109-0.453,0.109c-0.364,0-0.715-0.199-0.892-0.546
		c-0.251-0.492-0.056-1.094,0.437-1.345c0.625-0.319,1.27-0.603,1.916-0.845c0.521-0.195,1.094,0.069,1.287,0.586
		C27.271,8.705,27.008,9.281,26.491,9.475z M32.085,51.524H32c-0.7,0-1.405-0.042-2.096-0.124c-0.548-0.066-0.939-0.563-0.874-1.112
		c0.065-0.548,0.548-0.931,1.112-0.875c0.61,0.073,1.236,0.11,1.857,0.11c0.553,0,1.042,0.448,1.042,1S32.638,51.524,32.085,51.524z
		 M5.428,42h3.788c0.157,0.355,0.319,0.706,0.488,1.052c0.072,0.148,0.148,0.293,0.222,0.439c0.206,0.404,0.42,0.801,0.642,1.192
		c0.081,0.144,0.16,0.289,0.243,0.431c0.177,0.3,0.362,0.593,0.548,0.885H7.773C6.891,44.754,6.109,43.415,5.428,42z M4.968,17
		h3.827c-0.176,0.438-0.342,0.881-0.499,1.329c-0.043,0.123-0.086,0.245-0.128,0.368C8.024,19.127,7.89,19.561,7.763,20H3.856
		C4.175,18.969,4.547,17.969,4.968,17z M8.525,11h3.503c-0.122,0.175-0.245,0.348-0.363,0.526c-0.296,0.444-0.581,0.896-0.854,1.359
		c-0.083,0.142-0.162,0.287-0.243,0.431c-0.222,0.391-0.436,0.789-0.642,1.192c-0.074,0.146-0.15,0.291-0.222,0.439
		C9.695,14.965,9.686,14.982,9.677,15H5.929C6.686,13.573,7.558,12.238,8.525,11z M17.902,41.567
		c0.357,0.528,0.737,1.039,1.129,1.516c0.35,0.427,0.288,1.057-0.14,1.408c-0.186,0.152-0.41,0.227-0.633,0.227
		c-0.29,0-0.576-0.125-0.774-0.366c-0.431-0.525-0.847-1.085-1.238-1.664c-0.31-0.458-0.189-1.079,0.268-1.389
		C16.972,40.989,17.593,41.109,17.902,41.567z M17.456,13.684c0.439-0.538,0.907-1.058,1.39-1.544
		c0.39-0.393,1.022-0.394,1.414-0.006c0.393,0.389,0.395,1.022,0.006,1.414c-0.438,0.441-0.861,0.913-1.261,1.401
		c-0.197,0.242-0.485,0.367-0.775,0.367c-0.222,0-0.446-0.074-0.632-0.226C17.17,14.741,17.106,14.111,17.456,13.684z M13.644,33.94
		c0.534-0.135,1.078,0.192,1.212,0.729c0.152,0.611,0.332,1.224,0.536,1.82c0.179,0.522-0.101,1.091-0.623,1.27
		c-0.107,0.037-0.216,0.054-0.323,0.054c-0.416,0-0.805-0.262-0.946-0.677c-0.222-0.649-0.419-1.317-0.585-1.983
		C12.781,34.616,13.107,34.073,13.644,33.94z M12.167,29.021V29c0-0.675,0.027-1.361,0.08-2.037
		c0.044-0.551,0.534-0.954,1.075-0.918c0.551,0.043,0.962,0.525,0.919,1.076c-0.049,0.624-0.074,1.257-0.074,1.88
		c0,0.552-0.447,1.011-1,1.011S12.167,29.574,12.167,29.021z M15.379,21.551c-0.142,0.417-0.53,0.679-0.947,0.679
		c-0.106,0-0.215-0.018-0.321-0.053c-0.522-0.178-0.803-0.745-0.626-1.269c0.222-0.654,0.474-1.303,0.748-1.929
		c0.222-0.505,0.809-0.739,1.317-0.514c0.506,0.222,0.736,0.812,0.515,1.317C15.813,20.356,15.582,20.951,15.379,21.551z M2.5,29
		c0-0.674,0.036-1.338,0.078-2h3.987c-0.001,0.016-0.001,0.032-0.002,0.048C6.526,27.694,6.5,28.343,6.5,29
		c0,0.335,0.012,0.667,0.022,1H2.539C2.528,29.666,2.5,29.337,2.5,29z M6.636,32c0.038,0.421,0.087,0.839,0.141,1.255
		c0.004,0.03,0.006,0.061,0.01,0.092C6.861,33.903,6.951,34.454,7.052,35H3.108c-0.195-0.982-0.349-1.981-0.448-3H6.636z M7.256,22
		c-0.026,0.119-0.048,0.239-0.073,0.358c-0.027,0.131-0.054,0.261-0.08,0.392c-0.122,0.628-0.231,1.261-0.316,1.903
		c-0.004,0.03-0.006,0.061-0.01,0.092C6.766,24.83,6.759,24.915,6.748,25H2.779c0.132-1.018,0.299-2.022,0.528-3H7.256z M7.495,37
		c0.031,0.123,0.06,0.247,0.093,0.37c0.011,0.043,0.021,0.087,0.033,0.13c0.165,0.61,0.35,1.21,0.549,1.802
		c0.041,0.123,0.085,0.245,0.128,0.368c0.038,0.11,0.075,0.22,0.115,0.329H4.558c-0.379-0.971-0.705-1.973-0.983-3H7.495z
		 M25.258,49.135c-0.176,0.347-0.527,0.547-0.893,0.547c-0.152,0-0.307-0.035-0.451-0.108c-0.618-0.313-1.227-0.666-1.81-1.048
		c-0.462-0.303-0.591-0.922-0.289-1.384c0.304-0.461,0.923-0.591,1.385-0.289c0.521,0.342,1.066,0.657,1.618,0.938
		C25.312,48.041,25.508,48.643,25.258,49.135z M21.419,2.625c-0.318,0.166-0.632,0.338-0.943,0.518
		c-0.189,0.109-0.38,0.216-0.566,0.33C19.636,3.642,19.368,3.82,19.1,4h-1.926c1.462-0.684,2.989-1.224,4.579-1.559
		C21.64,2.498,21.532,2.566,21.419,2.625z M13.731,6h2.763C16.247,6.216,16,6.434,15.759,6.66c-0.203,0.192-0.4,0.391-0.598,0.589
		c-0.196,0.197-0.39,0.396-0.58,0.6c-0.186,0.199-0.373,0.396-0.554,0.6C13.868,8.629,13.716,8.815,13.561,9h-3.302
		C11.333,7.883,12.492,6.876,13.731,6z M9.324,48h3.432c0.113,0.148,0.225,0.297,0.341,0.442c0.302,0.379,0.612,0.749,0.931,1.109
		c0.181,0.205,0.368,0.402,0.554,0.6c0.191,0.203,0.384,0.403,0.58,0.6c0.081,0.082,0.159,0.169,0.241,0.249h-3.008
		C11.297,50.101,10.27,49.097,9.324,48z M21.753,55.559c-2.293-0.483-4.46-1.369-6.47-2.559h2.419
		c0.125,0.096,0.253,0.187,0.379,0.281c0.213,0.158,0.424,0.317,0.641,0.468c0.389,0.271,0.785,0.531,1.187,0.778
		c0.187,0.115,0.377,0.221,0.566,0.33c0.311,0.18,0.625,0.353,0.943,0.518C21.532,55.434,21.64,55.502,21.753,55.559z
		 M40.168,49.533c-0.622,0.319-1.267,0.605-1.915,0.849c-0.116,0.044-0.235,0.065-0.353,0.065c-0.404,0-0.785-0.247-0.936-0.648
		c-0.195-0.517,0.066-1.094,0.583-1.288c0.577-0.218,1.151-0.473,1.706-0.757c0.493-0.254,1.096-0.058,1.347,0.433
		C40.853,48.678,40.659,49.281,40.168,49.533z M41.135,38.348C39.948,39.569,38.516,40,36.376,40H24.947c-0.605,0-1-0.395-1-1
		s0.076-1,0.681-1h2.319l0.012-4H24c-0.55,0-1-0.45-1-1s0.45-1,1-1h2.965l0.043-14.009l-2.316,0.003
		c-0.605,0-0.997-0.392-0.997-0.997S24.087,16,24.693,16h10.104c1.895,0,3.463,0.606,4.66,1.803
		c1.196,1.196,1.803,2.709,1.803,4.494c0,2.104-0.792,3.724-2.357,4.831c2.665,0.938,4.014,3.129,4.014,6.531
		C42.915,35.553,42.316,37.13,41.135,38.348z M46.573,44.281c-0.438,0.537-0.903,1.058-1.386,1.546
		c-0.196,0.198-0.454,0.297-0.712,0.297c-0.254,0-0.508-0.096-0.702-0.289c-0.394-0.388-0.397-1.021-0.01-1.414
		c0.438-0.443,0.861-0.916,1.259-1.404c0.348-0.427,0.978-0.493,1.406-0.145S46.922,43.853,46.573,44.281z M46.903,16.837
		c-0.32,0-0.636-0.154-0.829-0.439c-0.352-0.52-0.732-1.028-1.131-1.513c-0.351-0.426-0.289-1.057,0.137-1.408
		c0.428-0.351,1.057-0.289,1.408,0.137c0.438,0.532,0.855,1.091,1.242,1.662c0.31,0.457,0.189,1.079-0.268,1.389
		C47.291,16.781,47.097,16.837,46.903,16.837z M50.53,37.049c-0.22,0.652-0.47,1.301-0.743,1.93
		c-0.164,0.376-0.531,0.601-0.918,0.601c-0.133,0-0.269-0.027-0.398-0.083c-0.506-0.221-0.738-0.81-0.518-1.316
		c0.251-0.577,0.48-1.172,0.683-1.77c0.176-0.523,0.744-0.807,1.267-0.628C50.426,35.959,50.707,36.526,50.53,37.049z
		 M51.758,30.993c-0.041,0.524-0.479,0.923-0.996,0.923c-0.025,0-0.052-0.001-0.078-0.003c-0.551-0.042-0.963-0.523-0.92-1.074
		c0.047-0.603,0.07-1.222,0.07-1.839c0-0.552,0.447-1.032,1-1.032s1,0.416,1,0.968V29C51.834,29.668,51.809,30.339,51.758,30.993z"
		/>
</g>
<g>
</g>
<g>
</g>
<g>
</g>
<g>
</g>
<g>
</g>
<g>
</g>
<g>
</g>
<g>
</g>
<g>
</g>
<g>
</g>
<g>
</g>
<g>
</g>
<g>
</g>
<g>
</g>
<g>
</g>
</svg>
