<?xml version="1.0" encoding="iso-8859-1"?>
<!-- Generator: Adobe Illustrator 19.0.0, SVG Export Plug-In . SVG Version: 6.00 Build 0)  -->
<svg version="1.1" id="Capa_1" xmlns="http://www.w3.org/2000/svg" xmlns:xlink="http://www.w3.org/1999/xlink" x="0px" y="0px"
	 viewBox="0 0 512 512" style="enable-background:new 0 0 512 512;" xml:space="preserve">
<g>
	<g>
		<path d="M225,180c-8.262,0-15,6.724-15,15v30c0,8.276,6.738,15,15,15h15v-60H225z"/>
	</g>
</g>
<g>
	<g>
		<path d="M287,272h-15v60h15c8.262,0,15-6.724,15-15v-30C302,278.724,295.262,272,287,272z"/>
	</g>
</g>
<g>
	<g>
		<path d="M257,90c-90.967,0-167,76.019-167,167s76.033,165,167,165s165-74.019,165-165S347.967,90,257,90z M287,240
			c24.814,0,45,22.186,45,47v30c0,24.814-20.186,45-45,45h-15v15c0,8.291-6.709,15-15,15c-8.291,0-17-6.709-17-15v-15h-15
			c-24.814,0-45-20.186-45-45c0-8.291,6.709-15,15-15s15,6.709,15,15c0,8.276,6.738,15,15,15h15v-60h-15c-24.814,0-45-22.186-45-47
			v-30c0-24.814,20.186-45,45-45h15v-15c0-8.291,8.709-15,17-15s15,6.709,15,15v15h15c24.814,0,45,20.186,45,45
			c0,8.291-6.709,15-15,15c-8.291,0-15-6.709-15-15c0-8.276-6.738-15-15-15h-15v60H287z"/>
	</g>
</g>
<g>
	<g>
		<path d="M257,0C116.404,0,0,116.39,0,257s116.404,255,257,255s255-114.39,255-255S397.596,0,257,0z M257,452.2
			c-107.52,0-197.2-87.48-197.2-195S149.48,59.8,257,59.8S452.2,149.48,452.2,257S364.52,452.2,257,452.2z"/>
	</g>
</g>
<g>
</g>
<g>
</g>
<g>
</g>
<g>
</g>
<g>
</g>
<g>
</g>
<g>
</g>
<g>
</g>
<g>
</g>
<g>
</g>
<g>
</g>
<g>
</g>
<g>
</g>
<g>
</g>
<g>
</g>
</svg>
